%TF.GenerationSoftware,KiCad,Pcbnew,(7.0.0)*%
%TF.CreationDate,2023-05-23T17:02:05+02:00*%
%TF.ProjectId,Kettcar_Control_HW,4b657474-6361-4725-9f43-6f6e74726f6c,1.0*%
%TF.SameCoordinates,Original*%
%TF.FileFunction,Paste,Top*%
%TF.FilePolarity,Positive*%
%FSLAX46Y46*%
G04 Gerber Fmt 4.6, Leading zero omitted, Abs format (unit mm)*
G04 Created by KiCad (PCBNEW (7.0.0)) date 2023-05-23 17:02:05*
%MOMM*%
%LPD*%
G01*
G04 APERTURE LIST*
G04 Aperture macros list*
%AMRoundRect*
0 Rectangle with rounded corners*
0 $1 Rounding radius*
0 $2 $3 $4 $5 $6 $7 $8 $9 X,Y pos of 4 corners*
0 Add a 4 corners polygon primitive as box body*
4,1,4,$2,$3,$4,$5,$6,$7,$8,$9,$2,$3,0*
0 Add four circle primitives for the rounded corners*
1,1,$1+$1,$2,$3*
1,1,$1+$1,$4,$5*
1,1,$1+$1,$6,$7*
1,1,$1+$1,$8,$9*
0 Add four rect primitives between the rounded corners*
20,1,$1+$1,$2,$3,$4,$5,0*
20,1,$1+$1,$4,$5,$6,$7,0*
20,1,$1+$1,$6,$7,$8,$9,0*
20,1,$1+$1,$8,$9,$2,$3,0*%
G04 Aperture macros list end*
%ADD10RoundRect,0.150000X-0.150000X0.512500X-0.150000X-0.512500X0.150000X-0.512500X0.150000X0.512500X0*%
%ADD11RoundRect,0.200000X-0.200000X-0.275000X0.200000X-0.275000X0.200000X0.275000X-0.200000X0.275000X0*%
%ADD12R,0.400000X0.900000*%
%ADD13RoundRect,0.200000X-0.275000X0.200000X-0.275000X-0.200000X0.275000X-0.200000X0.275000X0.200000X0*%
%ADD14R,2.000000X1.200000*%
%ADD15RoundRect,0.200000X0.200000X0.275000X-0.200000X0.275000X-0.200000X-0.275000X0.200000X-0.275000X0*%
%ADD16RoundRect,0.150000X0.825000X0.150000X-0.825000X0.150000X-0.825000X-0.150000X0.825000X-0.150000X0*%
%ADD17R,0.650000X0.400000*%
%ADD18RoundRect,0.200000X0.275000X-0.200000X0.275000X0.200000X-0.275000X0.200000X-0.275000X-0.200000X0*%
%ADD19R,1.000000X0.400000*%
%ADD20RoundRect,0.250000X0.250000X0.475000X-0.250000X0.475000X-0.250000X-0.475000X0.250000X-0.475000X0*%
%ADD21R,0.600000X1.550000*%
%ADD22R,0.400000X0.650000*%
%ADD23RoundRect,0.250000X-0.475000X0.250000X-0.475000X-0.250000X0.475000X-0.250000X0.475000X0.250000X0*%
%ADD24RoundRect,0.150000X0.150000X-0.825000X0.150000X0.825000X-0.150000X0.825000X-0.150000X-0.825000X0*%
%ADD25RoundRect,0.150000X-0.512500X-0.150000X0.512500X-0.150000X0.512500X0.150000X-0.512500X0.150000X0*%
%ADD26RoundRect,0.250000X0.300000X-2.050000X0.300000X2.050000X-0.300000X2.050000X-0.300000X-2.050000X0*%
%ADD27RoundRect,0.250000X2.375000X-2.025000X2.375000X2.025000X-2.375000X2.025000X-2.375000X-2.025000X0*%
%ADD28RoundRect,0.250000X-1.000000X-0.900000X1.000000X-0.900000X1.000000X0.900000X-1.000000X0.900000X0*%
%ADD29RoundRect,0.250000X0.475000X-0.250000X0.475000X0.250000X-0.475000X0.250000X-0.475000X-0.250000X0*%
%ADD30RoundRect,0.225000X0.225000X0.250000X-0.225000X0.250000X-0.225000X-0.250000X0.225000X-0.250000X0*%
%ADD31RoundRect,0.150000X0.150000X-0.512500X0.150000X0.512500X-0.150000X0.512500X-0.150000X-0.512500X0*%
%ADD32RoundRect,0.225000X0.250000X-0.225000X0.250000X0.225000X-0.250000X0.225000X-0.250000X-0.225000X0*%
G04 APERTURE END LIST*
D10*
%TO.C,U1*%
X44450000Y-120012500D03*
X43500000Y-120012500D03*
X42550000Y-120012500D03*
X42550000Y-122287500D03*
X44450000Y-122287500D03*
%TD*%
D11*
%TO.C,R1*%
X148725000Y-82000000D03*
X150375000Y-82000000D03*
%TD*%
D12*
%TO.C,RN1*%
X125899999Y-111449999D03*
X126699999Y-111449999D03*
X127499999Y-111449999D03*
X128299999Y-111449999D03*
X128299999Y-109749999D03*
X127499999Y-109749999D03*
X126699999Y-109749999D03*
X125899999Y-109749999D03*
%TD*%
D13*
%TO.C,R11*%
X90450000Y-113425000D03*
X90450000Y-115075000D03*
%TD*%
%TO.C,R27*%
X65050000Y-115975000D03*
X65050000Y-117625000D03*
%TD*%
D14*
%TO.C,U10*%
X51439999Y-124769999D03*
X51439999Y-127309999D03*
X51439999Y-129849999D03*
X61599999Y-129849999D03*
X61599999Y-127309999D03*
X61599999Y-124769999D03*
%TD*%
D15*
%TO.C,R26*%
X48325000Y-114300000D03*
X46675000Y-114300000D03*
%TD*%
D16*
%TO.C,U12*%
X149150000Y-95545000D03*
X149150000Y-94275000D03*
X149150000Y-93005000D03*
X149150000Y-91735000D03*
X149150000Y-90465000D03*
X149150000Y-89195000D03*
X149150000Y-87925000D03*
X149150000Y-86655000D03*
X144200000Y-86655000D03*
X144200000Y-87925000D03*
X144200000Y-89195000D03*
X144200000Y-90465000D03*
X144200000Y-91735000D03*
X144200000Y-93005000D03*
X144200000Y-94275000D03*
X144200000Y-95545000D03*
%TD*%
D17*
%TO.C,Q10*%
X38899999Y-126149999D03*
X38899999Y-126799999D03*
X38899999Y-127449999D03*
X40799999Y-127449999D03*
X40799999Y-126799999D03*
X40799999Y-126149999D03*
%TD*%
D11*
%TO.C,R39*%
X79900000Y-121300000D03*
X81550000Y-121300000D03*
%TD*%
D15*
%TO.C,R16*%
X157675000Y-83650000D03*
X156025000Y-83650000D03*
%TD*%
D13*
%TO.C,R10*%
X93000000Y-120575000D03*
X93000000Y-122225000D03*
%TD*%
D18*
%TO.C,R23*%
X76800000Y-72275000D03*
X76800000Y-70625000D03*
%TD*%
D19*
%TO.C,U2*%
X128074999Y-92024999D03*
X128074999Y-92674999D03*
X128074999Y-93324999D03*
X128074999Y-93974999D03*
X128074999Y-94624999D03*
X128074999Y-95274999D03*
X128074999Y-95924999D03*
X128074999Y-96574999D03*
X128074999Y-97224999D03*
X133474999Y-97224999D03*
X133474999Y-96574999D03*
X133474999Y-95924999D03*
X133474999Y-95274999D03*
X133474999Y-94624999D03*
X133474999Y-93974999D03*
X133474999Y-93324999D03*
X133474999Y-92674999D03*
X133474999Y-92024999D03*
%TD*%
D12*
%TO.C,RN3*%
X145199999Y-111449999D03*
X145999999Y-111449999D03*
X146799999Y-111449999D03*
X147599999Y-111449999D03*
X147599999Y-109749999D03*
X146799999Y-109749999D03*
X145999999Y-109749999D03*
X145199999Y-109749999D03*
%TD*%
D20*
%TO.C,C2*%
X44450000Y-124650000D03*
X42550000Y-124650000D03*
%TD*%
D11*
%TO.C,R4*%
X126825000Y-82000000D03*
X128475000Y-82000000D03*
%TD*%
D21*
%TO.C,Q5*%
X160994999Y-79849999D03*
X162264999Y-79849999D03*
X163534999Y-79849999D03*
X164804999Y-79849999D03*
X160994999Y-74449999D03*
X162264999Y-74449999D03*
X163534999Y-74449999D03*
X164804999Y-74449999D03*
%TD*%
D22*
%TO.C,Q12*%
X81724999Y-124649999D03*
X82374999Y-124649999D03*
X83024999Y-124649999D03*
X83024999Y-122749999D03*
X82374999Y-122749999D03*
X81724999Y-122749999D03*
%TD*%
D23*
%TO.C,C4*%
X97500000Y-120700000D03*
X97500000Y-122600000D03*
%TD*%
D16*
%TO.C,U8*%
X149150000Y-106520000D03*
X149150000Y-105250000D03*
X149150000Y-103980000D03*
X149150000Y-102710000D03*
X149150000Y-101440000D03*
X149150000Y-100170000D03*
X149150000Y-98900000D03*
X149150000Y-97630000D03*
X144200000Y-97630000D03*
X144200000Y-98900000D03*
X144200000Y-100170000D03*
X144200000Y-101440000D03*
X144200000Y-102710000D03*
X144200000Y-103980000D03*
X144200000Y-105250000D03*
X144200000Y-106520000D03*
%TD*%
D11*
%TO.C,R14*%
X156025000Y-82000000D03*
X157675000Y-82000000D03*
%TD*%
D13*
%TO.C,R9*%
X95550000Y-120575000D03*
X95550000Y-122225000D03*
%TD*%
%TO.C,R29*%
X65070000Y-126485000D03*
X65070000Y-128135000D03*
%TD*%
D21*
%TO.C,Q4*%
X124494999Y-79849999D03*
X125764999Y-79849999D03*
X127034999Y-79849999D03*
X128304999Y-79849999D03*
X124494999Y-74449999D03*
X125764999Y-74449999D03*
X127034999Y-74449999D03*
X128304999Y-74449999D03*
%TD*%
D11*
%TO.C,R24*%
X82225000Y-72400000D03*
X83875000Y-72400000D03*
%TD*%
D12*
%TO.C,RN2*%
X118049999Y-114949999D03*
X118849999Y-114949999D03*
X119649999Y-114949999D03*
X120449999Y-114949999D03*
X120449999Y-113249999D03*
X119649999Y-113249999D03*
X118849999Y-113249999D03*
X118049999Y-113249999D03*
%TD*%
D24*
%TO.C,U6*%
X141955000Y-119425000D03*
X143225000Y-119425000D03*
X144495000Y-119425000D03*
X145765000Y-119425000D03*
X147035000Y-119425000D03*
X148305000Y-119425000D03*
X149575000Y-119425000D03*
X150845000Y-119425000D03*
X150845000Y-114475000D03*
X149575000Y-114475000D03*
X148305000Y-114475000D03*
X147035000Y-114475000D03*
X145765000Y-114475000D03*
X144495000Y-114475000D03*
X143225000Y-114475000D03*
X141955000Y-114475000D03*
%TD*%
D25*
%TO.C,Q7*%
X106162500Y-89150000D03*
X106162500Y-91050000D03*
X108437500Y-90100000D03*
%TD*%
D15*
%TO.C,R8*%
X128475000Y-83650000D03*
X126825000Y-83650000D03*
%TD*%
%TO.C,R28*%
X48345000Y-124760000D03*
X46695000Y-124760000D03*
%TD*%
%TO.C,R7*%
X135775000Y-83650000D03*
X134125000Y-83650000D03*
%TD*%
%TO.C,R20*%
X102625000Y-87750000D03*
X100975000Y-87750000D03*
%TD*%
D13*
%TO.C,R34*%
X73675000Y-122875000D03*
X73675000Y-124525000D03*
%TD*%
D15*
%TO.C,R36*%
X78350000Y-121300000D03*
X76700000Y-121300000D03*
%TD*%
D26*
%TO.C,D2*%
X65500000Y-68150000D03*
D27*
X65265000Y-61425000D03*
X70815000Y-61425000D03*
X65265000Y-56575000D03*
X70815000Y-56575000D03*
D26*
X70580000Y-68150000D03*
%TD*%
D21*
%TO.C,Q6*%
X153694999Y-79849999D03*
X154964999Y-79849999D03*
X156234999Y-79849999D03*
X157504999Y-79849999D03*
X153694999Y-74449999D03*
X154964999Y-74449999D03*
X156234999Y-74449999D03*
X157504999Y-74449999D03*
%TD*%
D15*
%TO.C,R40*%
X84850000Y-121300000D03*
X83200000Y-121300000D03*
%TD*%
D21*
%TO.C,Q2*%
X139094999Y-79849999D03*
X140364999Y-79849999D03*
X141634999Y-79849999D03*
X142904999Y-79849999D03*
X139094999Y-74449999D03*
X140364999Y-74449999D03*
X141634999Y-74449999D03*
X142904999Y-74449999D03*
%TD*%
D28*
%TO.C,D1*%
X98100000Y-113800000D03*
X102400000Y-113800000D03*
%TD*%
D11*
%TO.C,R3*%
X134125000Y-82000000D03*
X135775000Y-82000000D03*
%TD*%
D15*
%TO.C,R15*%
X164975000Y-83650000D03*
X163325000Y-83650000D03*
%TD*%
D18*
%TO.C,R17*%
X95550000Y-115075000D03*
X95550000Y-113425000D03*
%TD*%
D29*
%TO.C,C11*%
X86600000Y-123700000D03*
X86600000Y-121800000D03*
%TD*%
D13*
%TO.C,R38*%
X80175000Y-122875000D03*
X80175000Y-124525000D03*
%TD*%
D18*
%TO.C,R18*%
X93000000Y-115075000D03*
X93000000Y-113425000D03*
%TD*%
D13*
%TO.C,R12*%
X87950000Y-113425000D03*
X87950000Y-115075000D03*
%TD*%
D22*
%TO.C,U14*%
X42699999Y-129549999D03*
X42049999Y-129549999D03*
X41399999Y-129549999D03*
X41399999Y-131449999D03*
X42049999Y-131449999D03*
X42699999Y-131449999D03*
%TD*%
D13*
%TO.C,R41*%
X84575000Y-122875000D03*
X84575000Y-124525000D03*
%TD*%
%TO.C,R22*%
X75000000Y-70625000D03*
X75000000Y-72275000D03*
%TD*%
%TO.C,R31*%
X40800000Y-122825000D03*
X40800000Y-124475000D03*
%TD*%
D24*
%TO.C,U5*%
X122655000Y-119425000D03*
X123925000Y-119425000D03*
X125195000Y-119425000D03*
X126465000Y-119425000D03*
X127735000Y-119425000D03*
X129005000Y-119425000D03*
X130275000Y-119425000D03*
X131545000Y-119425000D03*
X131545000Y-114475000D03*
X130275000Y-114475000D03*
X129005000Y-114475000D03*
X127735000Y-114475000D03*
X126465000Y-114475000D03*
X125195000Y-114475000D03*
X123925000Y-114475000D03*
X122655000Y-114475000D03*
%TD*%
D11*
%TO.C,R35*%
X73400000Y-121300000D03*
X75050000Y-121300000D03*
%TD*%
%TO.C,R13*%
X163325000Y-82000000D03*
X164975000Y-82000000D03*
%TD*%
D15*
%TO.C,R32*%
X46525000Y-127250000D03*
X44875000Y-127250000D03*
%TD*%
D30*
%TO.C,C5*%
X115650000Y-95525000D03*
X114100000Y-95525000D03*
%TD*%
D22*
%TO.C,U13*%
X47749999Y-129549999D03*
X47099999Y-129549999D03*
X46449999Y-129549999D03*
X46449999Y-131449999D03*
X47099999Y-131449999D03*
X47749999Y-131449999D03*
%TD*%
D14*
%TO.C,U9*%
X51419999Y-114259999D03*
X51419999Y-116799999D03*
X51419999Y-119339999D03*
X61579999Y-119339999D03*
X61579999Y-116799999D03*
X61579999Y-114259999D03*
%TD*%
D23*
%TO.C,C3*%
X91050000Y-120650000D03*
X91050000Y-122550000D03*
%TD*%
D21*
%TO.C,Q3*%
X131794999Y-79849999D03*
X133064999Y-79849999D03*
X134334999Y-79849999D03*
X135604999Y-79849999D03*
X131794999Y-74449999D03*
X133064999Y-74449999D03*
X134334999Y-74449999D03*
X135604999Y-74449999D03*
%TD*%
D11*
%TO.C,R2*%
X141425000Y-82000000D03*
X143075000Y-82000000D03*
%TD*%
D13*
%TO.C,R30*%
X38900000Y-122825000D03*
X38900000Y-124475000D03*
%TD*%
%TO.C,R37*%
X78075000Y-122875000D03*
X78075000Y-124525000D03*
%TD*%
D16*
%TO.C,U3*%
X123025000Y-95545000D03*
X123025000Y-94275000D03*
X123025000Y-93005000D03*
X123025000Y-91735000D03*
X123025000Y-90465000D03*
X123025000Y-89195000D03*
X123025000Y-87925000D03*
X123025000Y-86655000D03*
X118075000Y-86655000D03*
X118075000Y-87925000D03*
X118075000Y-89195000D03*
X118075000Y-90465000D03*
X118075000Y-91735000D03*
X118075000Y-93005000D03*
X118075000Y-94275000D03*
X118075000Y-95545000D03*
%TD*%
D11*
%TO.C,R33*%
X37125000Y-129250000D03*
X38775000Y-129250000D03*
%TD*%
D21*
%TO.C,Q1*%
X146394999Y-79849999D03*
X147664999Y-79849999D03*
X148934999Y-79849999D03*
X150204999Y-79849999D03*
X146394999Y-74449999D03*
X147664999Y-74449999D03*
X148934999Y-74449999D03*
X150204999Y-74449999D03*
%TD*%
D15*
%TO.C,R25*%
X83875000Y-70700000D03*
X82225000Y-70700000D03*
%TD*%
%TO.C,R6*%
X143075000Y-83650000D03*
X141425000Y-83650000D03*
%TD*%
%TO.C,R5*%
X150375000Y-83650000D03*
X148725000Y-83650000D03*
%TD*%
D31*
%TO.C,Q9*%
X78600000Y-73137500D03*
X80500000Y-73137500D03*
X79550000Y-70862500D03*
%TD*%
D19*
%TO.C,U7*%
X154199999Y-102999999D03*
X154199999Y-103649999D03*
X154199999Y-104299999D03*
X154199999Y-104949999D03*
X154199999Y-105599999D03*
X154199999Y-106249999D03*
X154199999Y-106899999D03*
X154199999Y-107549999D03*
X154199999Y-108199999D03*
X159599999Y-108199999D03*
X159599999Y-107549999D03*
X159599999Y-106899999D03*
X159599999Y-106249999D03*
X159599999Y-105599999D03*
X159599999Y-104949999D03*
X159599999Y-104299999D03*
X159599999Y-103649999D03*
X159599999Y-102999999D03*
%TD*%
D18*
%TO.C,R21*%
X104150000Y-90925000D03*
X104150000Y-89275000D03*
%TD*%
D32*
%TO.C,C7*%
X141950000Y-111375000D03*
X141950000Y-109825000D03*
%TD*%
D12*
%TO.C,RN4*%
X137349999Y-114949999D03*
X138149999Y-114949999D03*
X138949999Y-114949999D03*
X139749999Y-114949999D03*
X139749999Y-113249999D03*
X138949999Y-113249999D03*
X138149999Y-113249999D03*
X137349999Y-113249999D03*
%TD*%
D13*
%TO.C,R19*%
X108450000Y-71525000D03*
X108450000Y-73175000D03*
%TD*%
D29*
%TO.C,C10*%
X71550000Y-123700000D03*
X71550000Y-121800000D03*
%TD*%
D30*
%TO.C,C8*%
X141775000Y-106500000D03*
X140225000Y-106500000D03*
%TD*%
D32*
%TO.C,C6*%
X122650000Y-111375000D03*
X122650000Y-109825000D03*
%TD*%
D19*
%TO.C,U11*%
X154199999Y-92024999D03*
X154199999Y-92674999D03*
X154199999Y-93324999D03*
X154199999Y-93974999D03*
X154199999Y-94624999D03*
X154199999Y-95274999D03*
X154199999Y-95924999D03*
X154199999Y-96574999D03*
X154199999Y-97224999D03*
X159599999Y-97224999D03*
X159599999Y-96574999D03*
X159599999Y-95924999D03*
X159599999Y-95274999D03*
X159599999Y-94624999D03*
X159599999Y-93974999D03*
X159599999Y-93324999D03*
X159599999Y-92674999D03*
X159599999Y-92024999D03*
%TD*%
D20*
%TO.C,C1*%
X44450000Y-117050000D03*
X42550000Y-117050000D03*
%TD*%
D22*
%TO.C,Q11*%
X75224999Y-124649999D03*
X75874999Y-124649999D03*
X76524999Y-124649999D03*
X76524999Y-122749999D03*
X75874999Y-122749999D03*
X75224999Y-122749999D03*
%TD*%
D30*
%TO.C,C9*%
X141775000Y-95525000D03*
X140225000Y-95525000D03*
%TD*%
M02*
