M48
; DRILL file {KiCad (7.0.0)} date Tue May 23 17:02:08 2023
; FORMAT={-:-/ absolute / inch / decimal}
; #@! TF.CreationDate,2023-05-23T17:02:08+02:00
; #@! TF.GenerationSoftware,Kicad,Pcbnew,(7.0.0)
; #@! TF.FileFunction,Plated,1,2,PTH
FMAT,2
INCH
; #@! TA.AperFunction,Plated,PTH,ViaDrill
T1C0.0118
; #@! TA.AperFunction,Plated,PTH,ViaDrill
T2C0.0197
; #@! TA.AperFunction,Plated,PTH,ComponentDrill
T3C0.0320
; #@! TA.AperFunction,Plated,PTH,ComponentDrill
T4C0.0394
; #@! TA.AperFunction,Plated,PTH,ComponentDrill
T5C0.0433
; #@! TA.AperFunction,Plated,PTH,ComponentDrill
T6C0.0551
; #@! TA.AperFunction,Plated,PTH,ComponentDrill
T7C0.0669
; #@! TA.AperFunction,Plated,PTH,ComponentDrill
T8C0.1772
; #@! TA.AperFunction,Plated,PTH,ComponentDrill
T9C0.2362
%
G90
G05
T1
X1.4173Y-5.3484
X1.4193Y-5.0157
X1.4409Y-4.8071
X1.5266Y-5.0502
X1.5787Y-5.1535
X1.6024Y-5.1004
X1.6063Y-4.9311
X1.6102Y-5.1378
X1.6358Y-4.6083
X1.6555Y-5.0689
X1.6752Y-4.9547
X1.6811Y-5.0335
X1.7126Y-4.7697
X1.7303Y-5.122
X1.8012Y-5.1004
X1.8543Y-5.2067
X1.8642Y-5.0098
X1.8799Y-5.0531
X1.9232Y-4.813
X1.9429Y-5.0531
X2.4508Y-4.3189
X2.4941Y-4.3622
X2.5531Y-5.2402
X2.5571Y-4.2126
X2.5807Y-5.2657
X2.6004Y-4.2559
X2.6063Y-5.2933
X2.6289Y-5.3209
X2.8169Y-4.8327
X2.8169Y-4.9075
X2.8917Y-5.0709
X2.9006Y-4.8691
X2.9094Y-2.7815
X2.9173Y-5.0945
X2.9213Y-4.7756
X2.939Y-5.122
X2.9705Y-5.1496
X3.0138Y-4.8622
X3.0531Y-4.7756
X3.063Y-4.9429
X3.0738Y-4.8691
X3.1565Y-4.8691
X3.1614Y-4.2441
X3.1614Y-4.3878
X3.1614Y-4.5256
X3.1772Y-4.7756
X3.2697Y-4.8622
X3.2717Y-4.9429
X3.309Y-4.7756
X3.3297Y-4.8691
X3.4094Y-4.8327
X3.4587Y-4.8701
X3.5138Y-4.4656
X3.5846Y-4.7874
X3.6969Y-3.8051
X3.7126Y-4.2441
X3.7126Y-4.2717
X3.7126Y-4.2992
X3.7126Y-4.4656
X3.7618Y-3.7146
X3.8386Y-4.7894
X4.1358Y-3.5807
X4.2697Y-2.7795
X4.4557Y-3.7608
X4.5541Y-3.7982
X4.5866Y-3.4606
X4.6043Y-4.5098
X4.7126Y-3.4114
X4.7126Y-3.5118
X4.7126Y-3.561
X4.7126Y-3.6122
X4.7874Y-4.7008
X4.7894Y-4.3957
X4.8287Y-4.2874
X4.878Y-4.4488
X4.8799Y-4.7657
X4.9016Y-3.1949
X4.9026Y-3.4104
X4.998Y-3.8287
X5.128Y-4.4488
X5.1791Y-4.7598
X5.189Y-3.1949
X5.4252Y-3.8268
X5.4764Y-3.1949
X5.4843Y-3.7608
X5.4843Y-4.1929
X5.4941Y-3.8268
X5.5364Y-3.7146
X5.5472Y-4.7008
X5.5492Y-4.3957
X5.565Y-3.6614
X5.5827Y-4.2303
X5.5886Y-4.2874
X5.6122Y-3.5118
X5.6122Y-3.561
X5.6122Y-3.6122
X5.6122Y-3.9449
X5.6122Y-3.9941
X5.6122Y-4.0433
X5.6378Y-4.4488
X5.6398Y-4.7657
X5.7283Y-4.1929
X5.7362Y-3.7618
X5.7362Y-3.8937
X5.75Y-3.6713
X5.7638Y-3.1949
X5.7815Y-3.8268
X5.9311Y-3.4104
X5.9311Y-3.8425
X5.939Y-4.4409
X5.939Y-4.7598
X6.0236Y-3.8287
X6.0256Y-4.2598
X6.0512Y-3.1949
X6.3307Y-3.8287
X6.3307Y-4.2598
X6.3386Y-3.1949
T2
X4.1201Y-4.4803
X4.5374Y-2.7343
T3
X2.7614Y-4.0354
X2.7614Y-4.6354
X2.8614Y-4.0354
X2.8614Y-4.6354
X2.9614Y-4.0354
X2.9614Y-4.6354
X3.0614Y-4.0354
X3.0614Y-4.6354
X3.1614Y-4.0354
X3.1614Y-4.6354
X3.2614Y-4.0354
X3.2614Y-4.6354
X3.3614Y-4.0354
X3.3614Y-4.6354
X3.4614Y-4.0354
X3.4614Y-4.6354
X3.5614Y-4.0354
X3.5614Y-4.6354
X3.6614Y-4.0354
X3.6614Y-4.6354
X3.7614Y-4.0354
X3.7614Y-4.6354
X3.8614Y-4.0354
X3.8614Y-4.6354
X3.9614Y-4.0354
X3.9614Y-4.6354
X4.0614Y-4.0354
X4.0614Y-4.6354
X4.1614Y-4.0354
X4.1614Y-4.6354
T4
X4.2697Y-3.0453
X4.2697Y-3.3445
T5
X2.5772Y-2.8445
X2.6772Y-2.8445
X2.7772Y-2.8445
T6
X1.2795Y-5.561
X1.4173Y-5.561
X1.5157Y-4.0059
X1.5157Y-4.1437
X1.5157Y-4.2815
X1.5157Y-4.4193
X1.5551Y-5.561
X1.752Y-5.561
X1.8898Y-5.561
X2.0276Y-5.561
X2.2244Y-5.561
X2.3622Y-5.561
X2.5Y-5.561
X2.6969Y-5.561
X2.8346Y-5.561
X3.0315Y-5.561
X3.1693Y-5.561
X3.3661Y-5.561
X3.5039Y-5.561
X3.6417Y-5.561
X3.8386Y-5.561
X3.9764Y-5.561
X4.1142Y-5.561
X4.311Y-5.561
X4.4488Y-5.561
X4.5866Y-5.561
X4.7244Y-5.561
X4.8622Y-5.561
X5.0Y-5.561
X5.1378Y-5.561
X5.2756Y-5.561
X5.4134Y-5.561
X5.5118Y-2.313
X5.5512Y-5.561
X5.6496Y-2.313
X5.748Y-5.561
X5.7874Y-2.313
X5.8858Y-5.561
X5.9252Y-2.313
X6.0236Y-5.561
X6.063Y-2.313
X6.1614Y-5.561
X6.2008Y-2.313
X6.2992Y-5.561
X6.3976Y-2.313
X6.437Y-5.561
X6.5354Y-2.313
X6.5748Y-5.561
X6.6732Y-2.313
X6.7126Y-5.561
X6.752Y-2.6713
X6.752Y-2.8091
X6.752Y-2.9469
X6.752Y-3.0846
X6.752Y-3.2224
X6.752Y-3.3602
X6.752Y-3.498
X6.752Y-3.6358
X6.752Y-3.7736
X6.752Y-3.9114
X6.752Y-4.1083
X6.752Y-4.2461
X6.752Y-4.3839
X6.752Y-4.5217
X6.752Y-4.6594
X6.752Y-4.7972
X6.752Y-4.935
X6.752Y-5.0728
X6.752Y-5.2106
X6.752Y-5.3484
X6.811Y-2.313
X6.8504Y-5.561
X6.9882Y-5.561
T7
X3.1102Y-2.3819
X3.3071Y-2.3819
X3.6614Y-2.3819
X3.8583Y-2.3819
X4.0551Y-2.3819
X4.252Y-2.3819
X4.6063Y-2.3819
X4.8031Y-2.3819
X5.0Y-2.3819
X5.1969Y-2.3819
T8
X1.6693Y-3.189
X1.6693Y-3.5709
X1.9528Y-3.189
X1.9528Y-3.5709
T9
X1.5551Y-2.3228
X1.5551Y-2.7559
X2.0669Y-2.3228
X2.0669Y-2.7559
T0
M30
