%TF.GenerationSoftware,KiCad,Pcbnew,(7.0.0)*%
%TF.CreationDate,2023-05-23T17:02:05+02:00*%
%TF.ProjectId,Kettcar_Control_HW,4b657474-6361-4725-9f43-6f6e74726f6c,1.0*%
%TF.SameCoordinates,Original*%
%TF.FileFunction,Soldermask,Bot*%
%TF.FilePolarity,Negative*%
%FSLAX46Y46*%
G04 Gerber Fmt 4.6, Leading zero omitted, Abs format (unit mm)*
G04 Created by KiCad (PCBNEW (7.0.0)) date 2023-05-23 17:02:05*
%MOMM*%
%LPD*%
G01*
G04 APERTURE LIST*
%ADD10C,0.150000*%
%ADD11C,2.400000*%
%ADD12C,8.000000*%
%ADD13R,2.000000X2.000000*%
%ADD14C,2.000000*%
%ADD15C,2.800000*%
%ADD16C,5.500000*%
%ADD17R,1.905000X2.000000*%
%ADD18O,1.905000X2.000000*%
%ADD19C,2.600000*%
%ADD20C,3.200000*%
%ADD21C,1.574800*%
G04 APERTURE END LIST*
D10*
X34500000Y-54000000D02*
X57500000Y-54000000D01*
X57500000Y-54000000D02*
X57500000Y-94500000D01*
X57500000Y-94500000D02*
X34500000Y-94500000D01*
X34500000Y-94500000D02*
X34500000Y-54000000D01*
G36*
X34500000Y-54000000D02*
G01*
X57500000Y-54000000D01*
X57500000Y-94500000D01*
X34500000Y-94500000D01*
X34500000Y-54000000D01*
G37*
D11*
%TO.C,J9*%
X141000000Y-141250000D03*
X137500000Y-141250000D03*
X134000000Y-141250000D03*
X130500000Y-141250000D03*
X127000000Y-141250000D03*
X123500000Y-141250000D03*
X120000000Y-141250000D03*
X116500000Y-141250000D03*
X113000000Y-141250000D03*
X109500000Y-141250000D03*
%TD*%
%TO.C,J10*%
X39500000Y-141250000D03*
X36000000Y-141250000D03*
X32500000Y-141250000D03*
%TD*%
D12*
%TO.C,J4*%
X39500000Y-59000000D03*
X39500000Y-70000000D03*
%TD*%
D11*
%TO.C,J11*%
X38500000Y-112250000D03*
X38500000Y-108750000D03*
X38500000Y-105250000D03*
X38500000Y-101750000D03*
%TD*%
%TO.C,J13*%
X177500000Y-141250000D03*
X174000000Y-141250000D03*
X170500000Y-141250000D03*
X167000000Y-141250000D03*
X163500000Y-141250000D03*
X160000000Y-141250000D03*
X156500000Y-141250000D03*
X153000000Y-141250000D03*
X149500000Y-141250000D03*
X146000000Y-141250000D03*
%TD*%
D13*
%TO.C,LS1*%
X108449999Y-77349999D03*
D14*
X108450000Y-84950000D03*
%TD*%
D15*
%TO.C,J12*%
X79000000Y-60500000D03*
X84000000Y-60500000D03*
%TD*%
D11*
%TO.C,J18*%
X72000000Y-141250000D03*
X68500000Y-141250000D03*
%TD*%
%TO.C,J20*%
X63500000Y-141250000D03*
X60000000Y-141250000D03*
X56500000Y-141250000D03*
%TD*%
D16*
%TO.C,J6*%
X49600000Y-81000000D03*
X42400000Y-81000000D03*
%TD*%
D17*
%TO.C,Q8*%
X70539999Y-72249999D03*
D18*
X67999999Y-72249999D03*
X65459999Y-72249999D03*
%TD*%
D11*
%TO.C,J19*%
X171500000Y-67850000D03*
X171500000Y-71350000D03*
X171500000Y-74850000D03*
X171500000Y-78350000D03*
X171500000Y-81850000D03*
X171500000Y-85350000D03*
X171500000Y-88850000D03*
X171500000Y-92350000D03*
X171500000Y-95850000D03*
X171500000Y-99350000D03*
%TD*%
%TO.C,J21*%
X51500000Y-141250000D03*
X48000000Y-141250000D03*
X44500000Y-141250000D03*
%TD*%
%TO.C,J16*%
X92500000Y-141250000D03*
X89000000Y-141250000D03*
X85500000Y-141250000D03*
%TD*%
D15*
%TO.C,J3*%
X117000000Y-60500000D03*
X122000000Y-60500000D03*
X127000000Y-60500000D03*
X132000000Y-60500000D03*
%TD*%
D19*
%TO.C,REF\u002A\u002A*%
X68000000Y-78000000D03*
%TD*%
D11*
%TO.C,J5*%
X140000000Y-58750000D03*
X143500000Y-58750000D03*
X147000000Y-58750000D03*
X150500000Y-58750000D03*
X154000000Y-58750000D03*
X157500000Y-58750000D03*
%TD*%
%TO.C,J14*%
X171500000Y-104350000D03*
X171500000Y-107850000D03*
X171500000Y-111350000D03*
X171500000Y-114850000D03*
X171500000Y-118350000D03*
X171500000Y-121850000D03*
X171500000Y-125350000D03*
X171500000Y-128850000D03*
X171500000Y-132350000D03*
X171500000Y-135850000D03*
%TD*%
D20*
%TO.C,REF\u002A\u002A*%
X158000000Y-68000000D03*
%TD*%
D11*
%TO.C,J17*%
X104500000Y-141250000D03*
X101000000Y-141250000D03*
X97500000Y-141250000D03*
%TD*%
D20*
%TO.C,REF\u002A\u002A*%
X52000000Y-105000000D03*
%TD*%
D12*
%TO.C,J1*%
X52500000Y-70000000D03*
X52500000Y-59000000D03*
%TD*%
D11*
%TO.C,J15*%
X80500000Y-141250000D03*
X77000000Y-141250000D03*
%TD*%
D15*
%TO.C,J2*%
X93000000Y-60500000D03*
X98000000Y-60500000D03*
X103000000Y-60500000D03*
X108000000Y-60500000D03*
%TD*%
D11*
%TO.C,J8*%
X162500000Y-58750000D03*
X166000000Y-58750000D03*
X169500000Y-58750000D03*
X173000000Y-58750000D03*
%TD*%
D20*
%TO.C,REF\u002A\u002A*%
X80000000Y-79000000D03*
%TD*%
D16*
%TO.C,J7*%
X49600000Y-90700000D03*
X42400000Y-90700000D03*
%TD*%
D21*
%TO.C,U4*%
X70140000Y-117740000D03*
X72680000Y-117740000D03*
X75220000Y-117740000D03*
X77760000Y-117740000D03*
X80300000Y-117740000D03*
X82840000Y-117740000D03*
X85380000Y-117740000D03*
X87920000Y-117740000D03*
X90460000Y-117740000D03*
X93000000Y-117740000D03*
X95540000Y-117740000D03*
X98080000Y-117740000D03*
X100620000Y-117740000D03*
X103160000Y-117740000D03*
X105700000Y-117740000D03*
X105700000Y-102500000D03*
X103160000Y-102500000D03*
X100620000Y-102500000D03*
X98080000Y-102500000D03*
X95540000Y-102500000D03*
X93000000Y-102500000D03*
X90460000Y-102500000D03*
X87920000Y-102500000D03*
X85380000Y-102500000D03*
X82840000Y-102500000D03*
X80300000Y-102500000D03*
X77760000Y-102500000D03*
X75220000Y-102500000D03*
X72680000Y-102500000D03*
X70140000Y-102500000D03*
%TD*%
D20*
%TO.C,REF\u002A\u002A*%
X108000000Y-126000000D03*
%TD*%
M02*
